<svg width="80" height="80" viewBox="0 0 80 80" fill="none" xmlns="http://www.w3.org/2000/svg">
<g clip-path="url(#clip0_10297_163)">
<path d="M27.9375 68.75H25C24.425 68.75 23.925 69.1375 23.7875 69.7L22.775 73.75H21.0725C20.5138 71.6 18.5725 70 16.25 70C13.4925 70 11.25 72.2425 11.25 75C11.25 77.7575 13.4925 80 16.25 80C18.5725 80 20.5125 78.4 21.0725 76.25H23.75C24.325 76.25 24.825 75.8625 24.9625 75.3L25.975 71.25H30.6125C29.6625 70.475 28.775 69.65 27.9375 68.75ZM15 56.25H20.9625C20.3375 53.8875 20 51.425 20 48.9125V42.025C20 40.6 20.7875 39.3125 22.075 38.675L38.325 30.5375C38.8375 30.2875 39.425 30.15 40 30.15C40.575 30.15 41.1625 30.2875 41.675 30.5375L57.925 38.6625C59.2125 39.3125 60 40.6 60 42.025V48.9125C60 51.425 59.6625 53.8875 59.0375 56.25H65C73.275 56.25 80 49.525 80 41.25C80 34.1 74.85 27.9625 67.9875 26.5625C68.4875 25.2625 68.75 23.8875 68.75 22.5C68.75 16.3 63.7 11.25 57.5 11.25H57.1625C54.2125 4.4875 47.4375 0 40 0C32.0375 0 24.925 5.1125 22.3125 12.55C21.9625 12.5125 21.6125 12.5 21.25 12.5C15.05 12.5 10 17.55 10 23.75C10 24.8375 10.1625 25.9125 10.4625 26.9625C4.325 28.9 0 34.7 0 41.25C0 49.525 6.725 56.25 15 56.25ZM16.25 66.25C16.825 66.25 17.325 65.8625 17.4625 65.3L18.475 61.25H22.8C22.4125 60.4375 22.0625 59.6 21.75 58.75H17.5C16.925 58.75 16.425 59.1375 16.2875 59.7L15.275 63.75H12.3225C11.7638 61.6 9.8225 60 7.5 60C4.7425 60 2.5 62.2425 2.5 65C2.5 67.7575 4.7425 70 7.5 70C9.8225 70 11.7625 68.4 12.3225 66.25H16.25Z" fill="#3D4C47"/>
<path d="M28.75 45.1125V48.9175C28.7565 52.6768 29.8132 56.3596 31.801 59.5504C33.7888 62.7412 36.6285 65.3132 40 66.9762C43.3715 65.3132 46.2112 62.7412 48.199 59.5504C50.1868 56.3596 51.2435 52.6768 51.25 48.9175V45.1125L40 39.4875L28.75 45.1125ZM45.8838 49.1162C46.1181 49.3506 46.2497 49.6685 46.2497 50C46.2497 50.3314 46.1181 50.6493 45.8838 50.8837L39.6338 57.1337C39.5179 57.2502 39.3802 57.3427 39.2286 57.4057C39.0769 57.4688 38.9143 57.5013 38.75 57.5013C38.5857 57.5013 38.4231 57.4688 38.2714 57.4057C38.1198 57.3427 37.9821 57.2502 37.8662 57.1337L34.1162 53.3837C33.9969 53.2684 33.9016 53.1305 33.8361 52.978C33.7706 52.8255 33.7361 52.6615 33.7347 52.4955C33.7332 52.3295 33.7649 52.1649 33.8277 52.0113C33.8906 51.8577 33.9834 51.7181 34.1008 51.6007C34.2181 51.4834 34.3577 51.3906 34.5113 51.3277C34.6649 51.2649 34.8295 51.2332 34.9955 51.2347C35.1615 51.2361 35.3255 51.2706 35.478 51.3361C35.6305 51.4016 35.7684 51.4968 35.8838 51.6162L38.75 54.4825L44.1162 49.1162C44.3507 48.8819 44.6685 48.7503 45 48.7503C45.3315 48.7503 45.6493 48.8819 45.8838 49.1162Z" fill="#3D4C47"/>
<path d="M57.5 48.9175V42.0225C57.4999 41.7904 57.4351 41.563 57.3131 41.3656C57.191 41.1683 57.0163 41.0088 56.8087 40.905L40.5587 32.78C40.3852 32.6933 40.194 32.6482 40 32.6482C39.806 32.6482 39.6147 32.6933 39.4412 32.78L23.1912 40.905C22.9836 41.0088 22.809 41.1683 22.6869 41.3656C22.5649 41.563 22.5001 41.7904 22.5 42.0225V48.9175C22.5 59.8238 29.355 69.7375 39.5588 73.5875C39.8431 73.6948 40.1569 73.6948 40.4412 73.5875C50.645 69.7375 57.5 59.825 57.5 48.9175ZM40.52 69.4975C40.3566 69.5714 40.1793 69.6096 40 69.6096C39.8207 69.6096 39.6434 69.5714 39.48 69.4975C31.4425 65.825 26.25 57.7488 26.25 48.9175V44.3413C26.2499 44.109 26.3145 43.8813 26.4366 43.6836C26.5587 43.486 26.7335 43.3264 26.9412 43.2225L39.4412 36.9725C39.7925 36.7975 40.2075 36.7975 40.5587 36.9725L53.0587 43.2225C53.2665 43.3264 53.4413 43.486 53.5634 43.6836C53.6855 43.8813 53.7501 44.109 53.75 44.3413V48.9163C53.75 57.7488 48.5562 65.8263 40.52 69.4975ZM72.5 60C70.1775 60 68.2375 61.6 67.6775 63.75H64.725L63.7125 59.7C63.6465 59.4285 63.491 59.1871 63.271 59.0147C63.051 58.8424 62.7794 58.7491 62.5 58.75H58.25C57.9375 59.6 57.5875 60.4375 57.2 61.25H61.525L62.5375 65.3C62.675 65.8625 63.175 66.25 63.75 66.25H67.6775C68.2362 68.4 70.1775 70 72.5 70C75.2575 70 77.5 67.7575 77.5 65C77.5 62.2425 75.2575 60 72.5 60ZM63.75 70C61.4275 70 59.4875 71.6 58.9275 73.75H57.225L56.2125 69.7C56.1465 69.4285 55.991 69.1871 55.771 69.0147C55.551 68.8424 55.2794 68.7491 55 68.75H52.0625C51.225 69.65 50.3375 70.475 49.3875 71.25H54.025L55.0375 75.3C55.175 75.8625 55.675 76.25 56.25 76.25H58.9275C59.4862 78.4 61.4275 80 63.75 80C66.5075 80 68.75 77.7575 68.75 75C68.75 72.2425 66.5075 70 63.75 70Z" fill="#3D4C47"/>
</g>
<defs>
<clipPath id="clip0_10297_163">
<rect width="80" height="80" fill="white"/>
</clipPath>
</defs>
</svg>
