<svg width="53" height="60" viewBox="0 0 53 60" fill="none" xmlns="http://www.w3.org/2000/svg">
<g clip-path="url(#clip0_10297_188)">
<path d="M3.5332 54.7266C3.5332 57.6343 5.91078 60 8.8332 60H44.1665C47.089 60 49.4665 57.6343 49.4665 54.7266V52.1484H3.5332V54.7266ZM14.251 32.2266C11.6533 32.2266 9.53987 34.3294 9.53987 36.9141C9.53987 39.4987 11.6533 41.6016 14.251 41.6016C16.8487 41.6016 18.9621 39.4987 18.9621 36.9141C18.9621 34.3294 16.8487 32.2266 14.251 32.2266ZM41.4036 32.2266H39.4552C39.4572 32.9223 39.4593 33.7365 39.4593 34.1003C39.4593 34.5282 39.463 35.3139 39.4666 35.9809C40.1489 35.9774 40.9585 35.9739 41.4036 35.9739C42.5182 35.9739 43.4599 35.1158 43.4599 34.1003C43.4599 33.0847 42.5181 32.2266 41.4036 32.2266Z" fill="#166E55"/>
<path d="M49.4667 25.1953H3.53333C1.58187 25.1953 0 26.7693 0 28.7109V45.1172C0 47.0589 1.58187 48.6328 3.53333 48.6328H49.4667C51.4181 48.6328 53 47.0589 53 45.1172V28.7109C53 26.7693 51.4181 25.1953 49.4667 25.1953ZM14.2511 43.9453C10.3546 43.9453 7.18444 40.7911 7.18444 36.9141C7.18444 33.037 10.3546 29.8828 14.2511 29.8828C18.1477 29.8828 21.3178 33.037 21.3178 36.9141C21.3178 40.7911 18.1477 43.9453 14.2511 43.9453ZM34.7927 41.8726C34.609 42.091 34.4095 42.2957 34.1958 42.4852C33.1178 43.4404 31.7293 43.9453 30.1806 43.9453C26.284 43.9453 23.1139 40.7911 23.1139 36.9141C23.1139 33.037 26.284 29.8828 30.1806 29.8828C31.5967 29.8828 32.9633 30.2982 34.1325 31.0843C34.6714 31.4467 34.8131 32.1751 34.4489 32.7114C34.0848 33.2476 33.3527 33.3888 32.8137 33.0262C32.0354 32.5031 31.1249 32.2266 30.1806 32.2266C27.5828 32.2266 25.4694 34.3294 25.4694 36.9141C25.4694 39.4987 27.5828 41.6016 30.1806 41.6016C31.1565 41.6016 31.9802 41.31 32.6293 40.7348C32.7577 40.6207 32.8777 40.4974 32.9884 40.3661C33.4065 39.8702 34.1494 39.8057 34.6476 40.2217C35.1458 40.6377 35.2108 41.3769 34.7927 41.8726ZM45.5219 41.9992C45.9516 42.485 45.9042 43.2255 45.4159 43.6532C45.2012 43.8417 44.9246 43.9456 44.6382 43.9453C44.4708 43.9455 44.3053 43.9102 44.1528 43.8416C44.0002 43.773 43.8641 43.6728 43.7536 43.5477L39.4478 38.6801V42.7734C39.4478 43.4207 38.9205 43.9453 38.27 43.9453C37.6195 43.9453 37.0922 43.4207 37.0922 42.7734V31.0547C37.0922 30.4075 37.6195 29.8828 38.27 29.8828L38.2719 29.8829L38.2738 29.8828H41.4036C43.8364 29.8828 45.8156 31.7748 45.8156 34.1003C45.8156 36.1648 44.2552 37.8864 42.2028 38.247L45.5219 41.9992ZM49.4667 17.5781H37.1C34.1776 17.5781 31.8 15.2125 31.8 12.3047V0H8.83333C5.91091 0 3.53333 2.36566 3.53333 5.27344V21.6797H49.4667V17.5781ZM26.5 17.5781H12.3667C11.391 17.5781 10.6 16.7911 10.6 15.8203C10.6 14.8495 11.391 14.0625 12.3667 14.0625H26.5C27.4757 14.0625 28.2667 14.8495 28.2667 15.8203C28.2667 16.7911 27.4757 17.5781 26.5 17.5781ZM26.5 10.5469H12.3667C11.391 10.5469 10.6 9.75984 10.6 8.78906C10.6 7.81828 11.391 7.03125 12.3667 7.03125H26.5C27.4757 7.03125 28.2667 7.81828 28.2667 8.78906C28.2667 9.75984 27.4757 10.5469 26.5 10.5469Z" fill="#166E55"/>
<path d="M37.1002 14.0626H48.4319L35.3335 1.02979V12.3047C35.3335 13.274 36.126 14.0626 37.1002 14.0626Z" fill="#166E55"/>
</g>
<defs>
<clipPath id="clip0_10297_188">
<rect width="53" height="60" fill="white"/>
</clipPath>
</defs>
</svg>
