<svg width="80" height="80" viewBox="0 0 80 80" fill="none" xmlns="http://www.w3.org/2000/svg">
<g clip-path="url(#clip0_10297_158)">
<path d="M35 24.9988V19.9988H5C2.245 19.9988 0 22.2438 0 24.9988V34.9988H36.055C35.36 31.9438 35 28.6538 35 24.9988ZM79.795 44.9988C76.385 50.2538 71.185 54.7238 63.735 59.0038C62.59 59.6588 61.3 59.9988 60 59.9988C58.7 59.9988 57.41 59.6588 56.28 59.0138C48.83 54.7238 43.63 50.2488 40.215 44.9988H0V69.9988C0 72.7588 2.245 74.9988 5 74.9988H75C77.76 74.9988 80 72.7588 80 69.9988V44.9988H79.795ZM22.5 59.9988H12.5C11.12 59.9988 10 58.8788 10 57.4988C10 56.1188 11.12 54.9988 12.5 54.9988H22.5C23.88 54.9988 25 56.1188 25 57.4988C25 58.8788 23.88 59.9988 22.5 59.9988Z" fill="#3D4C47"/>
<path d="M78.485 12.7038L60.985 5.20375C60.6729 5.07016 60.337 5.00128 59.9975 5.00128C59.658 5.00128 59.3221 5.07016 59.01 5.20375L41.51 12.7038C40.595 13.0938 40 13.9988 40 14.9988V24.9988C40 38.7538 45.085 46.7938 58.755 54.6688C59.14 54.8888 59.57 54.9988 60 54.9988C60.43 54.9988 60.86 54.8888 61.245 54.6688C74.915 46.8138 80 38.7738 80 24.9988V14.9988C80 13.9988 79.405 13.0938 78.485 12.7038ZM69.455 24.0638L59.455 36.5638C58.975 37.1538 58.255 37.4988 57.5 37.4988H57.395C57.0018 37.4816 56.6182 37.3722 56.2751 37.1793C55.932 36.9865 55.6391 36.7157 55.42 36.3888L50.42 28.8888C49.655 27.7388 49.965 26.1888 51.115 25.4238C52.255 24.6638 53.81 24.9638 54.58 26.1188L57.685 30.7738L65.545 20.9438C66.41 19.8688 67.985 19.6988 69.06 20.5538C70.14 21.4088 70.31 22.9838 69.455 24.0638Z" fill="#3D4C47"/>
</g>
<defs>
<clipPath id="clip0_10297_158">
<rect width="80" height="80" fill="white"/>
</clipPath>
</defs>
</svg>
