<svg width="80" height="80" viewBox="0 0 80 80" fill="none" xmlns="http://www.w3.org/2000/svg">
<g clip-path="url(#clip0_10297_144)">
<path d="M77.075 50.9719C77.075 49.6513 77.075 48.2537 77.0663 47.9175C76.3919 30.5506 51.485 30.84 51.0556 48.2013C51.0513 48.4763 51.05 49.74 51.05 50.9719C50.1865 51.3232 49.4472 51.9236 48.9263 52.6966C48.4054 53.4697 48.1264 54.3803 48.125 55.3125V75.3125C48.1267 76.5552 48.621 77.7465 49.4998 78.6252C50.3785 79.504 51.5698 79.9983 52.8125 80H75.3125C76.5552 79.9983 77.7465 79.504 78.6252 78.6252C79.504 77.7465 79.9983 76.5552 80 75.3125V55.3125C79.9986 54.3803 79.7196 53.4697 79.1987 52.6966C78.6778 51.9236 77.9385 51.3232 77.075 50.9719ZM66.0187 72.5H62.1063C61.8288 72.5 61.5549 72.4385 61.3042 72.3198C61.0534 72.2012 60.8321 72.0284 60.6562 71.8139C60.4803 71.5993 60.3542 71.3485 60.287 71.0793C60.2198 70.8102 60.2131 70.5295 60.2675 70.2575L61.5431 63.8825C61.6246 63.4016 61.5476 62.9071 61.3237 62.4738C61.0356 61.9899 60.8808 61.4383 60.8752 60.8752C60.8695 60.312 61.0131 59.7574 61.2914 59.2678C61.5697 58.7783 61.9727 58.3711 62.4595 58.0879C62.9462 57.8047 63.4993 57.6555 64.0625 57.6555C64.6257 57.6555 65.1788 57.8047 65.6655 58.0879C66.1523 58.3711 66.5553 58.7783 66.8336 59.2678C67.1119 59.7574 67.2555 60.312 67.2498 60.8752C67.2442 61.4383 67.0894 61.9899 66.8013 62.4738C66.5772 62.9073 66.5002 63.402 66.5819 63.8831L67.8575 70.2581C67.9118 70.5301 67.905 70.8107 67.8378 71.0798C67.7705 71.3488 67.6444 71.5996 67.4685 71.8141C67.2926 72.0285 67.0714 72.2012 66.8207 72.3199C66.57 72.4385 66.2961 72.5 66.0187 72.5ZM57.9244 50.625C57.9244 49.5625 57.9244 48.5475 57.93 48.3125C58.0163 39.875 69.9925 39.6181 70.1931 48.0788C70.1987 48.3356 70.2 49.4662 70.2 50.6269L57.9244 50.625ZM31.875 69.375C32.3718 69.3734 32.8477 69.1753 33.199 68.824C33.5503 68.4727 33.7484 67.9968 33.75 67.5V65C33.75 64.5027 33.5525 64.0258 33.2008 63.6742C32.8492 63.3225 32.3723 63.125 31.875 63.125C31.3777 63.125 30.9008 63.3225 30.5492 63.6742C30.1975 64.0258 30 64.5027 30 65V67.5C30.0016 67.9968 30.1997 68.4727 30.551 68.824C30.9023 69.1753 31.3782 69.3734 31.875 69.375ZM9.375 63.125C8.87823 63.1266 8.40227 63.3247 8.05099 63.676C7.69972 64.0273 7.50165 64.5032 7.5 65V67.5C7.5 67.9973 7.69754 68.4742 8.04917 68.8258C8.40081 69.1775 8.87772 69.375 9.375 69.375C9.87228 69.375 10.3492 69.1775 10.7008 68.8258C11.0525 68.4742 11.25 67.9973 11.25 67.5V65C11.2484 64.5032 11.0503 64.0273 10.699 63.676C10.3477 63.3247 9.87177 63.1266 9.375 63.125ZM31.875 34.375C32.3718 34.3734 32.8477 34.1753 33.199 33.824C33.5503 33.4727 33.7484 32.9968 33.75 32.5V30C33.75 29.5027 33.5525 29.0258 33.2008 28.6742C32.8492 28.3225 32.3723 28.125 31.875 28.125C31.3777 28.125 30.9008 28.3225 30.5492 28.6742C30.1975 29.0258 30 29.5027 30 30V32.5C30.0016 32.9968 30.1997 33.4727 30.551 33.824C30.9023 34.1753 31.3782 34.3734 31.875 34.375ZM9.375 28.125C8.87823 28.1266 8.40227 28.3247 8.05099 28.676C7.69972 29.0273 7.50165 29.5032 7.5 30V32.5C7.5 32.9973 7.69754 33.4742 8.04917 33.8258C8.40081 34.1775 8.87772 34.375 9.375 34.375C9.87228 34.375 10.3492 34.1775 10.7008 33.8258C11.0525 33.4742 11.25 32.9973 11.25 32.5V30C11.2484 29.5032 11.0503 29.0273 10.699 28.676C10.3477 28.3247 9.87177 28.1266 9.375 28.125Z" fill="#3D4C47"/>
<path d="M6.56253 80H46.325C46.4889 79.9982 46.6495 79.9538 46.791 79.8711C46.9325 79.7885 47.0501 79.6703 47.1321 79.5284C47.2141 79.3865 47.2577 79.2257 47.2586 79.0618C47.2596 78.8979 47.2179 78.7366 47.1375 78.5938C46.5587 77.5969 46.2525 76.4652 46.25 75.3125V55.3125C46.243 54.3059 46.4703 53.3114 46.914 52.4078C47.3576 51.5042 48.0055 50.7162 48.8063 50.1062C48.92 50.0183 49.0123 49.9056 49.0762 49.7768C49.1401 49.6479 49.1739 49.5063 49.175 49.3625C48.6813 38.8175 57.0444 32.5212 65.2438 33.2437C65.3721 33.2514 65.5007 33.2329 65.6217 33.1893C65.7427 33.1458 65.8536 33.0782 65.9477 32.9905C66.0418 32.9028 66.1171 32.797 66.169 32.6794C66.221 32.5618 66.2486 32.4348 66.25 32.3062V6.5625C66.2484 4.82252 65.5564 3.15429 64.3261 1.92394C63.0957 0.69359 61.4275 0.00165476 59.6875 0L22.0563 0C20.309 0.00467354 18.6348 0.701331 17.4 1.9375L1.90628 17.5312C1.29965 18.1387 0.818977 18.8599 0.491848 19.6536C0.16472 20.4473 -0.00241916 21.2978 2.64551e-05 22.1562V73.4375C0.00168121 75.1775 0.693617 76.8457 1.92397 78.0761C3.15431 79.3064 4.82255 79.9983 6.56253 80ZM56.25 9.6875C56.25 9.43886 56.3488 9.2004 56.5246 9.02459C56.7004 8.84877 56.9389 8.75 57.1875 8.75C57.4362 8.75 57.6746 8.84877 57.8504 9.02459C58.0263 9.2004 58.125 9.43886 58.125 9.6875V17.8125C58.125 18.0611 58.0263 18.2996 57.8504 18.4754C57.6746 18.6512 57.4362 18.75 57.1875 18.75C56.9389 18.75 56.7004 18.6512 56.5246 18.4754C56.3488 18.2996 56.25 18.0611 56.25 17.8125V9.6875ZM53.75 30C53.75 29.0054 54.1451 28.0516 54.8484 27.3483C55.5516 26.6451 56.5055 26.25 57.5 26.25C58.4946 26.25 59.4484 26.6451 60.1517 27.3483C60.8549 28.0516 61.25 29.0054 61.25 30V31.5563C60.6178 31.6614 59.9919 31.8012 59.375 31.975V30C59.375 29.5027 59.1775 29.0258 58.8259 28.6742C58.4742 28.3225 57.9973 28.125 57.5 28.125C57.0027 28.125 56.5258 28.3225 56.1742 28.6742C55.8226 29.0258 55.625 29.5027 55.625 30V32.5C55.6248 32.8108 55.7044 33.1164 55.8563 33.3875C55.3065 33.6857 54.7743 34.0154 54.2625 34.375C53.9279 33.8067 53.751 33.1595 53.75 32.5V30ZM13.125 67.5C13.125 68.4946 12.7299 69.4484 12.0267 70.1516C11.3234 70.8549 10.3696 71.25 9.37503 71.25C8.38046 71.25 7.42664 70.8549 6.72338 70.1516C6.02011 69.4484 5.62503 68.4946 5.62503 67.5V65C5.62503 64.0054 6.02011 63.0516 6.72338 62.3484C7.42664 61.6451 8.38046 61.25 9.37503 61.25C10.3696 61.25 11.3234 61.6451 12.0267 62.3484C12.7299 63.0516 13.125 64.0054 13.125 65V67.5ZM8.12503 52.8125V44.6875C8.12503 44.4389 8.2238 44.2004 8.39961 44.0246C8.57543 43.8488 8.81389 43.75 9.06253 43.75C9.31117 43.75 9.54962 43.8488 9.72544 44.0246C9.90125 44.2004 10 44.4389 10 44.6875V52.8125C10 53.0611 9.90125 53.2996 9.72544 53.4754C9.54962 53.6512 9.31117 53.75 9.06253 53.75C8.81389 53.75 8.57543 53.6512 8.39961 53.4754C8.2238 53.2996 8.12503 53.0611 8.12503 52.8125ZM13.125 32.5C13.125 33.4946 12.7299 34.4484 12.0267 35.1516C11.3234 35.8549 10.3696 36.25 9.37503 36.25C8.38046 36.25 7.42664 35.8549 6.72338 35.1516C6.02011 34.4484 5.62503 33.4946 5.62503 32.5V30C5.62503 29.0054 6.02011 28.0516 6.72338 27.3483C7.42664 26.6451 8.38046 26.25 9.37503 26.25C10.3696 26.25 11.3234 26.6451 12.0267 27.3483C12.7299 28.0516 13.125 29.0054 13.125 30V32.5ZM20.625 70.3125C20.625 70.5611 20.5263 70.7996 20.3504 70.9754C20.1746 71.1512 19.9362 71.25 19.6875 71.25C19.4389 71.25 19.2004 71.1512 19.0246 70.9754C18.8488 70.7996 18.75 70.5611 18.75 70.3125V62.1875C18.75 61.9389 18.8488 61.7004 19.0246 61.5246C19.2004 61.3488 19.4389 61.25 19.6875 61.25C19.9362 61.25 20.1746 61.3488 20.3504 61.5246C20.5263 61.7004 20.625 61.9389 20.625 62.1875V70.3125ZM41.875 12.5C41.875 11.5054 42.2701 10.5516 42.9734 9.84835C43.6766 9.14509 44.6305 8.75 45.625 8.75C46.6196 8.75 47.5734 9.14509 48.2767 9.84835C48.9799 10.5516 49.375 11.5054 49.375 12.5V15C49.375 15.9946 48.9799 16.9484 48.2767 17.6517C47.5734 18.3549 46.6196 18.75 45.625 18.75C44.6305 18.75 43.6766 18.3549 42.9734 17.6517C42.2701 16.9484 41.875 15.9946 41.875 15V12.5ZM46.25 27.1875V35.3125C46.25 35.5611 46.1513 35.7996 45.9754 35.9754C45.7996 36.1512 45.5612 36.25 45.3125 36.25C45.0639 36.25 44.8254 36.1512 44.6496 35.9754C44.4738 35.7996 44.375 35.5611 44.375 35.3125V27.1875C44.375 26.9389 44.4738 26.7004 44.6496 26.5246C44.8254 26.3488 45.0639 26.25 45.3125 26.25C45.5612 26.25 45.7996 26.3488 45.9754 26.5246C46.1513 26.7004 46.25 26.9389 46.25 27.1875ZM41.875 47.5C41.8737 46.8188 42.0583 46.1501 42.409 45.566C42.7597 44.982 43.2632 44.5048 43.8652 44.1858C44.4671 43.8668 45.1447 43.7182 45.8249 43.7559C46.5051 43.7937 47.1621 44.0164 47.725 44.4C47.5504 45.2094 47.4334 46.0303 47.375 46.8563C47.2247 46.4429 46.9334 46.0958 46.5524 45.876C46.1714 45.6563 45.7251 45.578 45.292 45.6549C44.859 45.7318 44.4669 45.959 44.1848 46.2965C43.9028 46.634 43.7488 47.0602 43.75 47.5V50C43.7502 50.41 43.8848 50.8086 44.1331 51.1349C44.3815 51.4611 44.7299 51.6969 45.125 51.8063C44.8616 52.3766 44.6685 52.9768 44.55 53.5938C43.7778 53.3606 43.101 52.8855 42.6194 52.2384C42.1377 51.5914 41.8768 50.8066 41.875 50V47.5ZM31.25 9.6875C31.25 9.43886 31.3488 9.2004 31.5246 9.02459C31.7004 8.84877 31.9389 8.75 32.1875 8.75C32.4362 8.75 32.6746 8.84877 32.8504 9.02459C33.0263 9.2004 33.125 9.43886 33.125 9.6875V17.8125C33.125 18.0611 33.0263 18.2996 32.8504 18.4754C32.6746 18.6512 32.4362 18.75 32.1875 18.75C31.9389 18.75 31.7004 18.6512 31.5246 18.4754C31.3488 18.2996 31.25 18.0611 31.25 17.8125V9.6875ZM28.125 30C28.125 29.0054 28.5201 28.0516 29.2234 27.3483C29.9266 26.6451 30.8805 26.25 31.875 26.25C32.8696 26.25 33.8234 26.6451 34.5267 27.3483C35.2299 28.0516 35.625 29.0054 35.625 30V32.5C35.625 33.4946 35.2299 34.4484 34.5267 35.1516C33.8234 35.8549 32.8696 36.25 31.875 36.25C30.8805 36.25 29.9266 35.8549 29.2234 35.1516C28.5201 34.4484 28.125 33.4946 28.125 32.5V30ZM33.125 44.6875V52.8125C33.125 53.0611 33.0263 53.2996 32.8504 53.4754C32.6746 53.6512 32.4362 53.75 32.1875 53.75C31.9389 53.75 31.7004 53.6512 31.5246 53.4754C31.3488 53.2996 31.25 53.0611 31.25 52.8125V44.6875C31.25 44.4389 31.3488 44.2004 31.5246 44.0246C31.7004 43.8488 31.9389 43.75 32.1875 43.75C32.4362 43.75 32.6746 43.8488 32.8504 44.0246C33.0263 44.2004 33.125 44.4389 33.125 44.6875ZM28.125 65C28.125 64.0054 28.5201 63.0516 29.2234 62.3484C29.9266 61.6451 30.8805 61.25 31.875 61.25C32.8696 61.25 33.8234 61.6451 34.5267 62.3484C35.2299 63.0516 35.625 64.0054 35.625 65V67.5C35.625 68.4946 35.2299 69.4484 34.5267 70.1516C33.8234 70.8549 32.8696 71.25 31.875 71.25C30.8805 71.25 29.9266 70.8549 29.2234 70.1516C28.5201 69.4484 28.125 68.4946 28.125 67.5V65ZM23.75 47.5V50C23.75 50.9946 23.3549 51.9484 22.6517 52.6516C21.9484 53.3549 20.9946 53.75 20 53.75C19.0055 53.75 18.0516 53.3549 17.3484 52.6516C16.6451 51.9484 16.25 50.9946 16.25 50V47.5C16.25 46.5054 16.6451 45.5516 17.3484 44.8484C18.0516 44.1451 19.0055 43.75 20 43.75C20.9946 43.75 21.9484 44.1451 22.6517 44.8484C23.3549 45.5516 23.75 46.5054 23.75 47.5ZM19.6875 26.25C19.9362 26.25 20.1746 26.3488 20.3504 26.5246C20.5263 26.7004 20.625 26.9389 20.625 27.1875V35.3125C20.625 35.5611 20.5263 35.7996 20.3504 35.9754C20.1746 36.1512 19.9362 36.25 19.6875 36.25C19.4389 36.25 19.2004 36.1512 19.0246 35.9754C18.8488 35.7996 18.75 35.5611 18.75 35.3125V27.1875C18.75 26.9389 18.8488 26.7004 19.0246 26.5246C19.2004 26.3488 19.4389 26.25 19.6875 26.25ZM18.7313 3.25625L18.75 3.2375V14.0625C18.75 15.3057 18.2562 16.498 17.3771 17.3771C16.498 18.2561 15.3057 18.75 14.0625 18.75H3.34378L18.7313 3.25625Z" fill="#3D4C47"/>
<path d="M18.125 47.5V50C18.125 50.4973 18.3225 50.9742 18.6742 51.3258C19.0258 51.6775 19.5027 51.875 20 51.875C20.4973 51.875 20.9742 51.6775 21.3258 51.3258C21.6775 50.9742 21.875 50.4973 21.875 50V47.5C21.875 47.0027 21.6775 46.5258 21.3258 46.1742C20.9742 45.8225 20.4973 45.625 20 45.625C19.5027 45.625 19.0258 45.8225 18.6742 46.1742C18.3225 46.5258 18.125 47.0027 18.125 47.5ZM45.625 16.875C46.1218 16.8734 46.5977 16.6753 46.949 16.324C47.3003 15.9727 47.4984 15.4968 47.5 15V12.5C47.5 12.0027 47.3025 11.5258 46.9508 11.1742C46.5992 10.8225 46.1223 10.625 45.625 10.625C45.1277 10.625 44.6508 10.8225 44.2992 11.1742C43.9475 11.5258 43.75 12.0027 43.75 12.5V15C43.7516 15.4968 43.9497 15.9727 44.301 16.324C44.6523 16.6753 45.1282 16.8734 45.625 16.875Z" fill="#3D4C47"/>
</g>
<defs>
<clipPath id="clip0_10297_144">
<rect width="80" height="80" fill="white"/>
</clipPath>
</defs>
</svg>
