<svg width="80" height="80" viewBox="0 0 80 80" fill="none" xmlns="http://www.w3.org/2000/svg">
<path d="M18.6989 60.145C18.5326 59.9725 18.2676 59.7862 17.8889 59.5737C17.4594 59.3434 17.0085 59.1554 16.5426 59.0125C15.939 58.8274 15.3234 58.6842 14.7001 58.5837C13.9288 58.4612 13.1486 58.4022 12.3676 58.4075C10.8151 58.4075 9.38387 58.6512 8.11137 59.13C6.87338 59.5866 5.74828 60.3046 4.81262 61.235C3.90512 62.1462 3.19512 63.2687 2.70137 64.5687C2.21262 65.86 1.96387 67.3325 1.96387 68.9437C1.96387 70.5062 2.19637 71.9262 2.65637 73.1675C3.12012 74.42 3.80137 75.4975 4.68137 76.3725C5.56137 77.2487 6.64637 77.925 7.91012 78.3837C9.16137 78.8375 10.5914 79.0675 12.1614 79.0675C14.1822 79.0704 16.1867 78.7048 18.0764 77.9887C18.5097 77.8146 18.8051 77.5604 18.9626 77.2262C19.0939 76.945 19.1614 76.6162 19.1614 76.2537V68.6637C19.1633 68.4368 19.1308 68.2109 19.0651 67.9937C19.0003 67.7909 18.8963 67.6027 18.7589 67.44C18.6232 67.2823 18.454 67.1568 18.2637 67.0727C18.0735 66.9886 17.8668 66.948 17.6589 66.9537H11.2189C11.0251 66.9537 10.8439 67.0162 10.6914 67.1362C10.5528 67.2525 10.4443 67.4004 10.3751 67.5675C10.2996 67.7518 10.2504 67.9457 10.2289 68.1437C10.2003 68.3944 10.187 68.6465 10.1889 68.8987C10.1889 69.5112 10.2489 69.93 10.3764 70.2162C10.6114 70.75 11.0051 70.8287 11.2201 70.8287H14.3589V74.4875C14.0973 74.6056 13.8247 74.6977 13.5451 74.7625C12.4015 75.0163 11.2083 74.9254 10.1164 74.5012C9.46816 74.2534 8.88503 73.8609 8.41137 73.3537C7.93762 72.8437 7.56137 72.1975 7.29512 71.4337C7.02387 70.6562 6.88762 69.74 6.88762 68.7075C6.88762 67.7712 7.02262 66.9087 7.28887 66.1437C7.52962 65.4262 7.91268 64.7647 8.41512 64.1987C8.90238 63.664 9.49987 63.2413 10.1664 62.96C11.5076 62.3875 13.3914 62.43 14.6401 62.7675C15.2689 62.9375 15.8139 63.1225 16.2626 63.3187C16.7089 63.5137 17.0714 63.6975 17.3376 63.8625C18.0301 64.2912 18.4039 64.27 18.7214 64.0275C18.871 63.9046 18.9817 63.7409 19.0401 63.5562C19.0964 63.4 19.1376 63.205 19.1676 62.9562C19.1943 62.7346 19.2076 62.4708 19.2076 62.165C19.2076 61.6325 19.1739 61.2325 19.1064 60.945C19.0441 60.6468 18.9034 60.3707 18.6989 60.145ZM38.2414 61.23C37.3851 60.4037 36.3176 59.7725 35.0726 59.355C33.8451 58.9425 32.3401 58.7337 30.5976 58.7337H25.7051C25.2664 58.7337 24.8864 58.8687 24.5789 59.1362C24.2505 59.4229 24.0855 59.8537 24.0839 60.4287V77.0525C24.0839 77.625 24.2501 78.06 24.5789 78.3437C24.8864 78.6112 25.2664 78.7475 25.7051 78.7475H30.2589C31.9864 78.7475 33.5026 78.5537 34.7651 78.175C36.0514 77.7887 37.1626 77.1687 38.0651 76.3387C38.9726 75.5037 39.6764 74.4187 40.1551 73.1112C40.6301 71.8212 40.8701 70.2575 40.8701 68.4612C40.8701 66.9012 40.6476 65.5025 40.2064 64.305C39.7589 63.09 39.0989 62.0562 38.2414 61.23ZM30.4364 74.7375H28.8889V62.7125H30.3776C31.4939 62.7125 32.4001 62.8612 33.0701 63.1512C33.7301 63.44 34.2751 63.8425 34.6926 64.3512C35.1139 64.8675 35.4264 65.4875 35.6189 66.195C35.8176 66.9287 35.9189 67.735 35.9189 68.5912C35.9189 69.64 35.8039 70.5675 35.5776 71.3475C35.3551 72.105 35.0226 72.7425 34.5851 73.2387C34.1428 73.7411 33.5815 74.1245 32.9526 74.3537C32.2789 74.6087 31.4326 74.7375 30.4364 74.7375ZM57.6101 60.9487C57.1485 60.4308 56.595 60.0028 55.9776 59.6862C55.3936 59.3764 54.7687 59.1508 54.1214 59.0162C53.6189 58.9141 53.1116 58.8377 52.6014 58.7875C52.1594 58.7514 51.7161 58.7335 51.2726 58.7337H46.7776C46.2614 58.7337 45.8326 58.8937 45.5014 59.2112C45.1639 59.5337 44.9951 59.9975 44.9951 60.5912V77.745C44.9951 77.9425 45.0576 78.1312 45.1776 78.2925C45.2926 78.45 45.4714 78.5692 45.7139 78.65C45.8901 78.7087 46.1176 78.755 46.4064 78.7887C46.6714 78.8204 47.0018 78.8362 47.3976 78.8362C47.8035 78.8362 48.1368 78.8204 48.3976 78.7887C48.6814 78.755 48.9039 78.71 49.0814 78.65C49.2878 78.5895 49.4727 78.4711 49.6139 78.3087C49.7451 78.1503 49.8164 77.9507 49.8151 77.745V72.13H50.9351C52.2351 72.13 53.3864 71.9737 54.3564 71.6662C55.3439 71.3525 56.1926 70.8875 56.8776 70.28C57.5737 69.6595 58.1155 68.8852 58.4601 68.0187C58.8151 67.1387 58.9964 66.1237 58.9964 64.9975C58.9964 64.175 58.8789 63.4175 58.6464 62.7437C58.4237 62.0825 58.0714 61.4723 57.6101 60.9487ZM52.4614 67.9787C52.1026 68.1225 51.6376 68.195 51.0814 68.195H49.8139V62.6687H50.9926C51.3623 62.6686 51.7315 62.6941 52.0976 62.745C52.4126 62.7908 52.7147 62.9 53.0039 63.0725C53.2747 63.235 53.5076 63.4946 53.7026 63.8512C53.9001 64.2125 53.9989 64.6912 53.9989 65.2762C53.9989 65.7162 53.9376 66.125 53.8164 66.4912C53.698 66.8487 53.528 67.1525 53.3064 67.4025C53.0758 67.6605 52.7858 67.8583 52.4614 67.9787ZM77.9439 77.2375C77.8497 76.9424 77.7447 76.651 77.6289 76.3637L76.0264 72.6112C75.8504 72.18 75.6505 71.7589 75.4276 71.35C75.2329 70.9911 75.0093 70.6487 74.7589 70.3262C74.5288 70.0321 74.2649 69.7661 73.9726 69.5337L73.9289 69.4987C74.2072 69.3679 74.4693 69.2217 74.7151 69.06C75.2058 68.7413 75.6383 68.3409 75.9939 67.8762C76.3426 67.4225 76.6076 66.8987 76.7864 66.3212C76.9614 65.7537 77.0501 65.1187 77.0501 64.4362C77.0501 63.6237 76.9251 62.89 76.6801 62.2537C76.4382 61.6242 76.0683 61.0517 75.5939 60.5725C75.1012 60.0891 74.5219 59.7028 73.8864 59.4337C73.1807 59.138 72.4387 58.9375 71.6801 58.8375C71.4085 58.8083 71.1055 58.7833 70.7714 58.7625C70.3501 58.7399 69.9282 58.7299 69.5064 58.7325H64.5701C64.1293 58.7325 63.7535 58.8667 63.4426 59.135C63.1143 59.4217 62.9497 59.8525 62.9489 60.4275V77.7437C62.9489 77.9412 63.0114 78.13 63.1314 78.2912C63.2464 78.4487 63.4251 78.5679 63.6676 78.6487C63.8426 78.7071 64.0735 78.7533 64.3601 78.7875C64.8964 78.85 65.8376 78.85 66.3514 78.7875C66.6351 78.7537 66.8576 78.7087 67.0351 78.6487C67.2416 78.5882 67.4264 78.4698 67.5676 78.3075C67.6989 78.1491 67.7701 77.9495 67.7689 77.7437V70.95H68.5051C68.8551 70.9508 69.1597 71.0029 69.4189 71.1062C69.6714 71.21 69.8901 71.3587 70.0889 71.565C70.2964 71.7817 70.4893 72.0575 70.6676 72.3925C70.8589 72.7575 71.0539 73.1737 71.2501 73.63L72.9501 77.8612C73.0043 78.0246 73.0743 78.1671 73.1601 78.2887C73.2768 78.4521 73.4505 78.5775 73.6814 78.665C73.8651 78.7337 74.0976 78.7787 74.3901 78.8037C74.6443 78.8254 74.9864 78.8358 75.4164 78.835C75.9222 78.8358 76.3214 78.8254 76.6139 78.8037C76.9514 78.78 77.1939 78.7412 77.3801 78.6787C77.6514 78.5862 77.8301 78.4525 77.9276 78.2662C78.004 78.1139 78.0426 77.9454 78.0401 77.775C78.0313 77.5924 77.9989 77.4118 77.9439 77.2375ZM72.0964 64.835C72.0964 65.1867 72.0393 65.5 71.9251 65.775C71.8175 66.0401 71.6483 66.2758 71.4314 66.4625C71.1791 66.6764 70.8849 66.8352 70.5676 66.9287C70.146 67.0544 69.7075 67.1139 69.2676 67.105H67.7639V62.64H69.0314C69.4497 62.64 69.7776 62.6533 70.0151 62.68C70.2451 62.7083 70.446 62.7433 70.6176 62.785C71.1551 62.9312 71.5264 63.1675 71.7464 63.5037C71.9789 63.855 72.0964 64.3025 72.0964 64.835Z" fill="#3D4C47"/>
<path d="M62.5386 13.9738C62.5175 12.892 62.1094 11.8536 61.3884 11.0468C60.6674 10.24 59.6812 9.71833 58.6086 9.57627C50.4111 8.51627 44.7086 3.90127 42.6373 1.96502C41.9205 1.29904 40.9783 0.928894 39.9998 0.928894C39.0214 0.928894 38.0792 1.29904 37.3623 1.96502C35.2898 3.90127 29.5873 8.51752 21.3898 9.57627C20.3172 9.71864 19.3311 10.2407 18.6104 11.0476C17.8896 11.8546 17.4819 12.8932 17.4611 13.975C17.3636 21.0238 18.6573 44.4238 39.3861 49.605C39.7894 49.7068 40.2117 49.7064 40.6148 49.6038C61.3386 44.425 62.6348 21.0238 62.5386 13.9738ZM57.4661 14.5425C57.4836 21.0813 56.0973 40.0363 39.9998 44.5188C23.9048 40.0363 22.5173 21.0788 22.5323 14.5425C30.9998 13.3138 37.1248 8.90752 39.9998 6.41752C42.8761 8.91002 49.0011 13.3138 57.4661 14.5425Z" fill="#3D4C47"/>
<path d="M33.7585 24.8612C33.4972 24.5837 32.8997 24.115 31.7997 24.095C31.0685 24.095 30.3722 24.3475 29.8085 24.8712C29.3437 25.3699 29.0847 26.0258 29.0835 26.7075C29.0835 27.455 29.3672 28.1262 29.8872 28.6312L34.3947 33.1537C34.6409 33.41 34.9369 33.6131 35.2645 33.7504C35.5922 33.8878 35.9445 33.9566 36.2997 33.9525C37.0147 33.9525 37.716 33.67 38.2385 33.1625L50.1447 21.28C51.1622 20.245 51.1697 18.5362 50.161 17.4712L50.116 17.4262C49.0397 16.3887 47.3197 16.4037 46.291 17.4537L36.326 27.4187L33.7585 24.8612Z" fill="#3D4C47"/>
</svg>
