<svg width="80" height="80" viewBox="0 0 80 80" fill="none" xmlns="http://www.w3.org/2000/svg">
<path d="M66.875 14.6663C55.3962 13.8913 45.0375 7.79128 41.3887 5.41628C40.975 5.14473 40.491 5.00006 39.9962 5.00006C39.5014 5.00006 39.0174 5.14473 38.6037 5.41628C34.955 7.79753 24.5962 13.8925 13.1175 14.6663C12.4624 14.7102 11.8497 15.0055 11.4072 15.4904C10.9646 15.9754 10.7265 16.6125 10.7425 17.2688C10.965 27.445 13.525 65.4 39.1175 74.845C39.6827 75.0504 40.3022 75.0504 40.8675 74.845C66.4625 65.4 69.0225 27.445 69.2425 17.2688C69.2585 16.6137 69.0214 15.9776 68.5805 15.4929C68.1395 15.0081 67.5286 14.7121 66.875 14.6663ZM40 66.945C23.165 59.125 19.4275 33.3263 18.6012 21.6788C26.1512 20.2166 33.391 17.4584 40 13.5263C46.6089 17.4584 53.8487 20.2166 61.3987 21.6788C60.5725 33.3263 56.8325 59.1338 40 66.945Z" fill="#3D4C47"/>
<path d="M31.25 38.75H27.5C27.1685 38.75 26.8505 38.6183 26.6161 38.3839C26.3817 38.1495 26.25 37.8315 26.25 37.5C26.25 37.1685 26.3817 36.8505 26.6161 36.6161C26.8505 36.3817 27.1685 36.25 27.5 36.25H31.25C31.5815 36.25 31.8995 36.1183 32.1339 35.8839C32.3683 35.6495 32.5 35.3315 32.5 35C32.5 34.6685 32.3683 34.3505 32.1339 34.1161C31.8995 33.8817 31.5815 33.75 31.25 33.75H30C29.0054 33.75 28.0516 33.3549 27.3483 32.6517C26.6451 31.9484 26.25 30.9946 26.25 30C26.25 29.0054 26.6451 28.0516 27.3483 27.3483C28.0516 26.6451 29.0054 26.25 30 26.25H33.75C34.0815 26.25 34.3995 26.3817 34.6339 26.6161C34.8683 26.8505 35 27.1685 35 27.5C35 27.8315 34.8683 28.1495 34.6339 28.3839C34.3995 28.6183 34.0815 28.75 33.75 28.75H30C29.6685 28.75 29.3505 28.8817 29.1161 29.1161C28.8817 29.3505 28.75 29.6685 28.75 30C28.75 30.3315 28.8817 30.6495 29.1161 30.8839C29.3505 31.1183 29.6685 31.25 30 31.25H31.25C32.2446 31.25 33.1984 31.6451 33.9017 32.3483C34.6049 33.0516 35 34.0054 35 35C35 35.9946 34.6049 36.9484 33.9017 37.6517C33.1984 38.3549 32.2446 38.75 31.25 38.75ZM41.25 38.75H37.5C37.1685 38.75 36.8505 38.6183 36.6161 38.3839C36.3817 38.1495 36.25 37.8315 36.25 37.5C36.25 37.1685 36.3817 36.8505 36.6161 36.6161C36.8505 36.3817 37.1685 36.25 37.5 36.25H41.25C41.5815 36.25 41.8995 36.1183 42.1339 35.8839C42.3683 35.6495 42.5 35.3315 42.5 35C42.5 34.6685 42.3683 34.3505 42.1339 34.1161C41.8995 33.8817 41.5815 33.75 41.25 33.75H40C39.0054 33.75 38.0516 33.3549 37.3483 32.6517C36.6451 31.9484 36.25 30.9946 36.25 30C36.25 29.0054 36.6451 28.0516 37.3483 27.3483C38.0516 26.6451 39.0054 26.25 40 26.25H43.75C44.0815 26.25 44.3995 26.3817 44.6339 26.6161C44.8683 26.8505 45 27.1685 45 27.5C45 27.8315 44.8683 28.1495 44.6339 28.3839C44.3995 28.6183 44.0815 28.75 43.75 28.75H40C39.6685 28.75 39.3505 28.8817 39.1161 29.1161C38.8817 29.3505 38.75 29.6685 38.75 30C38.75 30.3315 38.8817 30.6495 39.1161 30.8839C39.3505 31.1183 39.6685 31.25 40 31.25H41.25C42.2446 31.25 43.1984 31.6451 43.9016 32.3483C44.6049 33.0516 45 34.0054 45 35C45 35.9946 44.6049 36.9484 43.9016 37.6517C43.1984 38.3549 42.2446 38.75 41.25 38.75ZM52.5 38.75H49.375C48.5462 38.75 47.7513 38.4208 47.1653 37.8347C46.5792 37.2487 46.25 36.4538 46.25 35.625V27.5C46.25 27.1685 46.3817 26.8505 46.6161 26.6161C46.8505 26.3817 47.1685 26.25 47.5 26.25C47.8315 26.25 48.1495 26.3817 48.3839 26.6161C48.6183 26.8505 48.75 27.1685 48.75 27.5V35.625C48.75 35.7908 48.8158 35.9497 48.9331 36.0669C49.0503 36.1842 49.2092 36.25 49.375 36.25H52.5C52.8315 36.25 53.1495 36.3817 53.3839 36.6161C53.6183 36.8505 53.75 37.1685 53.75 37.5C53.75 37.8315 53.6183 38.1495 53.3839 38.3839C53.1495 38.6183 52.8315 38.75 52.5 38.75ZM37.5513 48.75C37.5995 48.1116 37.8717 47.5107 38.3197 47.0534C38.7676 46.596 39.3627 46.3115 40 46.25C40.6374 46.3115 41.2326 46.5959 41.6808 47.0533C42.129 47.5106 42.4014 48.1115 42.45 48.75H44.9438C44.884 47.4527 44.3456 46.2236 43.4326 45.3001C42.5195 44.3767 41.2965 43.8244 40 43.75C38.7035 43.8244 37.4805 44.3767 36.5674 45.3001C35.6544 46.2236 35.116 47.4527 35.0562 48.75H37.5513Z" fill="#3D4C47"/>
<path d="M45 48.745H35C34.3096 48.745 33.75 49.3046 33.75 49.995V54.995C33.75 55.6854 34.3096 56.245 35 56.245H45C45.6904 56.245 46.25 55.6854 46.25 54.995V49.995C46.25 49.3046 45.6904 48.745 45 48.745Z" fill="#3D4C47"/>
</svg>
