<svg width="36" height="36" viewBox="0 0 36 36" fill="none" xmlns="http://www.w3.org/2000/svg">
<path fill-rule="evenodd" clip-rule="evenodd" d="M23.1477 2.94025C20.8476 -0.980081 15.1797 -0.980083 12.8796 2.94025L12.796 3.08263C11.7349 4.89119 9.80047 6.00804 7.70363 6.02273L7.53855 6.02388C2.99337 6.0557 0.15945 10.9642 2.40447 14.9164L2.48601 15.0599C3.52171 16.8832 3.52171 19.1169 2.48601 20.9401L2.40447 21.0836C0.15945 25.0358 2.99337 29.9443 7.53855 29.9761L7.70363 29.9772C9.80045 29.992 11.7349 31.1089 12.796 32.9173L12.8796 33.0597C15.1797 36.9801 20.8476 36.9801 23.1477 33.0597L23.2312 32.9173C24.2925 31.1089 26.2268 29.992 28.3236 29.9772L28.4888 29.9761C33.034 29.9443 35.8679 25.0358 33.6228 21.0836L33.5412 20.9401C32.5055 19.1169 32.5055 16.8832 33.5412 15.0599L33.6228 14.9164C35.8679 10.9642 33.034 6.0557 28.4888 6.02388L28.3236 6.02273C26.2268 6.00804 24.2925 4.89119 23.2312 3.08263L23.1477 2.94025ZM18.0137 26.9287C22.9448 26.9287 26.9424 22.9313 26.9424 18C26.9424 13.0688 22.9448 9.07119 18.0137 9.07119C13.0824 9.07119 9.08484 13.0688 9.08484 18C9.08484 22.9313 13.0824 26.9287 18.0137 26.9287Z" fill="#B3ED97"/>
</svg>
