<svg width="54" height="60" viewBox="0 0 54 60" fill="none" xmlns="http://www.w3.org/2000/svg">
<g clip-path="url(#clip0_10297_178)">
<path d="M36.4907 17.3439C40.3695 17.7616 44.2715 17.9217 48.1713 17.8232L48.162 17.808C43.5565 10.8101 37.6093 4.80799 30.669 0.153687C30.5682 4.09822 30.7273 8.04515 31.1452 11.9685C31.4433 14.5607 33.914 17.0474 36.4907 17.3439ZM42.133 36.1126C39.786 36.1126 37.4916 36.8131 35.5401 38.1255C33.5886 39.4379 32.0676 41.3032 31.1694 43.4857C30.2713 45.6681 30.0363 48.0696 30.4941 50.3864C30.952 52.7033 32.0822 54.8315 33.7419 56.5018C35.4015 58.1722 37.516 59.3097 39.8179 59.7706C42.1199 60.2314 44.5059 59.9949 46.6743 59.0909C48.8427 58.1869 50.6961 56.656 52 54.6919C53.304 52.7278 54 50.4186 54 48.0563C54 44.8887 52.7497 41.8507 50.5242 39.6108C48.2987 37.371 45.2803 36.1126 42.133 36.1126ZM47.815 47.8313C47.6636 47.9837 47.4839 48.1046 47.2862 48.187C47.0884 48.2695 46.8764 48.3119 46.6623 48.3119C46.4482 48.3119 46.2363 48.2695 46.0385 48.187C45.8407 48.1046 45.661 47.9837 45.5096 47.8313L43.7631 46.0735V53.9872C43.7631 54.4223 43.5914 54.8396 43.2857 55.1473C42.98 55.455 42.5654 55.6278 42.133 55.6278C41.7007 55.6278 41.2861 55.455 40.9804 55.1473C40.6747 54.8396 40.503 54.4223 40.503 53.9872V46.0794L38.7565 47.8372C38.6051 47.9895 38.4254 48.1104 38.2276 48.1928C38.0298 48.2753 37.8178 48.3177 37.6038 48.3177C37.3897 48.3177 37.1777 48.2753 36.9799 48.1928C36.7822 48.1104 36.6025 47.9895 36.4511 47.8372C36.2997 47.6848 36.1796 47.504 36.0977 47.3049C36.0158 47.1058 35.9736 46.8925 35.9736 46.677C35.9736 46.4616 36.0158 46.2482 36.0977 46.0492C36.1796 45.8501 36.2997 45.6692 36.4511 45.5169L40.9804 40.9595C41.1317 40.8071 41.3114 40.6862 41.5092 40.6038C41.707 40.5213 41.919 40.4789 42.133 40.4789C42.3471 40.4789 42.5591 40.5213 42.7569 40.6038C42.9547 40.6862 43.1344 40.8071 43.2857 40.9595L47.815 45.5169C47.9664 45.6692 48.0865 45.8501 48.1684 46.0492C48.2503 46.2482 48.2925 46.4616 48.2925 46.677C48.2925 46.8925 48.2503 47.1059 48.1684 47.3049C48.0865 47.504 47.9664 47.6848 47.815 47.8372V47.8313Z" fill="#166E55"/>
<path d="M48.2807 20.958C47.5053 20.9779 46.731 20.9908 45.9602 20.9908C42.6865 20.9897 39.4152 20.8141 36.16 20.4646H36.132C34.1911 20.2384 32.2897 19.2693 30.7621 17.7365C29.2345 16.2037 28.2774 14.2853 28.0515 12.333C28.0521 12.3236 28.0521 12.3142 28.0515 12.3048C27.619 8.23236 27.454 4.13556 27.5578 0.0412005C21.4398 -0.107173 15.3187 0.146491 9.23349 0.800574C5.16879 1.27518 1.27175 5.19861 0.799027 9.28962C-0.266342 19.3267 -0.266342 37.9642 0.799027 48.0013C1.27058 52.0923 5.16879 56.0157 9.23349 56.4903C16.1343 57.2338 23.0804 57.4614 30.0146 57.1712C28.5457 55.1888 27.577 52.8772 27.1917 50.4348C26.8063 47.9925 27.0159 45.4925 27.8023 43.1497H11.5575C11.1252 43.1497 10.7106 42.9769 10.4049 42.6692C10.0992 42.3615 9.92743 41.9442 9.92743 41.5091C9.92743 41.074 10.0992 40.6567 10.4049 40.349C10.7106 40.0413 11.1252 39.8685 11.5575 39.8685H29.3719C30.6665 37.836 32.4178 36.1383 34.4845 34.9126H11.5575C11.1252 34.9126 10.7106 34.7398 10.4049 34.4321C10.0992 34.1244 9.92743 33.7071 9.92743 33.272C9.92743 32.8369 10.0992 32.4196 10.4049 32.1119C10.7106 31.8042 11.1252 31.6314 11.5575 31.6314H36.8236C37.256 31.6314 37.6706 31.8042 37.9763 32.1119C38.282 32.4196 38.4537 32.8369 38.4537 33.272V33.2814C41.7503 32.4598 45.2251 32.7691 48.3273 34.1603C48.4169 29.8021 48.4006 25.2306 48.2807 20.958ZM28.6779 26.6767H11.5622C11.1298 26.6767 10.7152 26.5038 10.4095 26.1962C10.1038 25.8885 9.93209 25.4712 9.93209 25.0361C9.93209 24.601 10.1038 24.1837 10.4095 23.876C10.7152 23.5683 11.1298 23.3955 11.5622 23.3955H28.6779C29.1102 23.3955 29.5249 23.5683 29.8306 23.876C30.1363 24.1837 30.308 24.601 30.308 25.0361C30.308 25.4712 30.1363 25.8885 29.8306 26.1962C29.5249 26.5038 29.1102 26.6767 28.6779 26.6767Z" fill="#166E55"/>
</g>
<defs>
<clipPath id="clip0_10297_178">
<rect width="54" height="60" fill="white"/>
</clipPath>
</defs>
</svg>
