<svg width="249" height="32" viewBox="0 0 249 32" fill="none" xmlns="http://www.w3.org/2000/svg">
<path d="M23.6778 14.3355L31.7852 0.322148C31.8926 0.161074 31.7852 0 31.6242 0H26.4698C25.2349 0 24.2148 0.590604 23.6242 1.61074L14.9262 16.6443C14.8725 16.7517 14.9262 16.9127 15.0335 16.9665C19.0604 18.4161 22.3355 21.4766 24.1074 25.2886C24.161 25.4497 24.0538 25.6107 23.8926 25.6107H6.60402C6.49665 25.6107 6.38926 25.5034 6.38926 25.3959V6.60402C6.38926 6.49665 6.49665 6.38926 6.60402 6.38926H15.302C16.4295 6.38926 17.5034 5.79866 18.094 4.77852L20.6711 0.322148C20.7785 0.161074 20.6711 0 20.5101 0H0.214766C0.107382 0 0 0.107382 0 0.214766V31.7852C0 31.8926 0.107382 32 0.214766 32H31.7852C31.8926 32 32 31.8926 32 31.7852C31.9463 24.8591 28.7248 18.6846 23.7316 14.6041C23.6242 14.5503 23.6242 14.443 23.6778 14.3355Z" fill="url(#paint0_linear_10297_523)"/>
<path d="M70.2402 22.1585C70.2402 26.4426 67.1449 29.6175 61.5276 29.6175H48V2.38252H60.7633C66.3807 2.38252 69.476 5.28962 69.476 9.57377C69.476 12.5956 67.9474 14.8525 64.9286 15.6557C68.4442 16.3825 70.2402 18.9071 70.2402 22.1585ZM65.9985 21.8525C65.9985 19.1749 64.3171 17.3005 61.069 17.3005H52.2417V26.4044H61.069C64.3171 26.4044 65.9985 24.5301 65.9985 21.8525ZM65.2343 9.87978C65.2343 7.20219 63.5529 5.59563 60.3047 5.59563H52.2417V14.1639H60.3047C63.5529 14.1639 65.2343 12.5574 65.2343 9.87978Z" fill="#B3ED97"/>
<path d="M78.1101 29.6175H74.0595V9.87978H78.1101V29.6175ZM76.0848 6.43716C74.518 6.43716 73.6773 5.51913 73.6773 4.29508C73.6773 3.07104 74.518 2.11475 76.0848 2.11475C77.6133 2.11475 78.4922 3.07104 78.4922 4.29508C78.4922 5.51913 77.6133 6.43716 76.0848 6.43716Z" fill="#B3ED97"/>
<path d="M86.7484 29.6175H82.6978V2.38252H86.7484V29.6175Z" fill="#B3ED97"/>
<path d="M95.3868 29.6175H91.3361V2.38252H95.3868V29.6175Z" fill="#B3ED97"/>
<path d="M108.955 30C102.688 30 99.2102 26.0219 99.2102 19.7486C99.2102 13.6667 102.497 9.49727 108.725 9.49727C114.954 9.49727 118.24 13.7432 118.24 19.4044C118.24 19.7869 118.202 20.1311 118.164 20.5137H103.261C103.375 25.1803 105.592 27.2076 108.955 27.2076C111.744 27.2076 113.502 25.7541 114.113 23.4973H117.82C116.941 27.5137 114.075 30 108.955 30ZM108.725 12.2896C105.668 12.2896 103.681 14.1257 103.261 17.8361H114.19C113.77 14.1257 111.782 12.2896 108.725 12.2896Z" fill="#B3ED97"/>
<path d="M129.881 30C124.569 30 121.283 26.2131 121.283 19.7486C121.283 13.2842 124.569 9.49727 129.881 9.49727C133.053 9.49727 135.231 10.7978 136.339 13.2459V2.38252H140.39V29.6175H136.53V25.9836C135.422 28.5082 133.32 30 129.881 30ZM130.836 26.9016C134.084 26.9016 136.339 24.7213 136.339 19.7486C136.339 14.8142 134.084 12.5956 130.836 12.5956C127.55 12.5956 125.334 14.8142 125.334 19.7486C125.334 24.7213 127.55 26.9016 130.836 26.9016Z" fill="#B3ED97"/>
<path d="M153.806 30C147.309 30 143.908 27.3607 143.908 22.2732C143.908 21.8525 143.946 21.4317 143.985 20.9727H147.997C147.997 24.9126 149.946 26.7869 154.226 26.7869C158.544 26.7869 161.486 24.9126 161.486 21.3552C161.486 19.2896 160.34 18.2951 156.672 17.7596L152.965 17.1858C148.57 16.5355 146.545 14.623 146.545 10.9508C146.545 5.28962 150.863 2 157.703 2C163.741 2 166.951 4.9071 166.951 9.65027C166.951 9.95629 166.951 10.3005 166.913 10.6448H163.015C163.015 7.16394 161.219 5.21312 157.245 5.21312C153.576 5.21312 150.787 6.93443 150.787 10.3771C150.787 12.4809 151.818 13.3224 154.952 13.7814L158.659 14.3552C163.13 15.0055 165.728 16.9563 165.728 20.8579C165.728 26.5956 161.525 30 153.806 30Z" fill="#B3ED97"/>
<path d="M194.537 29.6175H190.639L192.817 17.1858C192.893 16.7268 192.932 16.2678 192.932 15.847C192.932 14.0492 192.167 12.7869 190.257 12.7869C187.849 12.7869 185.786 14.6995 185.213 18.1803L183.225 29.6175H179.328L181.506 17.1858C181.582 16.6885 181.62 16.1913 181.62 15.847C181.62 14.0492 180.856 12.7869 178.984 12.7869C176.576 12.7869 174.551 14.6995 173.978 18.1803L171.991 29.6175H168.093L171.532 9.87978H175.392L174.857 12.9016C176.041 10.8743 178.105 9.49727 180.359 9.49727C183.455 9.49727 185.06 10.9891 185.556 13.2077C186.932 10.8361 189.034 9.49727 191.632 9.49727C194.919 9.49727 196.982 11.5246 196.982 14.8907C196.982 15.4262 196.944 15.9617 196.829 16.5738L194.537 29.6175Z" fill="#B3ED97"/>
<path d="M205.733 30C201.835 30 199.313 28.0109 199.313 24.6448C199.313 20.7049 201.759 18.7923 206.421 18.4098L211.121 17.9891C213.07 17.8361 214.331 17.3005 214.331 15.388C214.331 13.5137 212.841 12.4044 210.51 12.4044C207.72 12.4044 206.191 13.5902 205.771 16H201.797C202.141 11.9071 205.007 9.49727 210.815 9.49727C215.286 9.49727 218.343 11.4098 218.343 15.082C218.343 15.5027 218.305 16 218.229 16.4208L216.815 24.5683C216.509 26.2131 216.356 27.4754 216.356 28.3552C216.356 28.929 216.433 29.3497 216.547 29.6175H212.917C212.573 29.1585 212.458 28.5464 212.458 27.9727C212.458 27.5902 212.497 27.1311 212.611 26.6339C211.083 28.8142 209.019 30 205.733 30ZM206.994 27.2076C210.433 27.2076 212.764 24.7978 213.299 21.5464L213.605 19.5574C213.146 20.0929 212.153 20.3607 210.662 20.5137L207.261 20.7814C204.586 21.0109 203.364 22.1967 203.364 24.224C203.364 26.0601 204.739 27.2076 206.994 27.2076Z" fill="#B3ED97"/>
<path d="M224.574 29.6175H220.523L223.962 9.87978H227.822L227.096 14.0109C228.586 10.7596 230.573 9.65027 233.133 9.65027C233.668 9.65027 234.815 9.76503 235.273 9.87978L234.662 13.4372L232.407 13.3607C229.274 13.3607 227.019 15.541 226.255 19.9399L224.574 29.6175Z" fill="#B3ED97"/>
<path d="M242.886 29.8087C239.408 29.8087 237.689 28.929 237.689 26.2514C237.689 25.7541 237.727 25.1803 237.842 24.5683L239.943 12.7869H236.695L237.192 9.87978H240.44L241.472 3.91257H245.523L244.491 9.87978H249L248.503 12.7869H243.994L241.892 24.6831C241.816 24.9508 241.816 25.2568 241.816 25.4481C241.816 26.5574 242.504 26.9016 244.032 26.9016L246.019 26.8634L245.561 29.6175C244.72 29.694 243.65 29.8087 242.886 29.8087Z" fill="#B3ED97"/>
<defs>
<linearGradient id="paint0_linear_10297_523" x1="30" y1="32" x2="2.5" y2="7.52509e-07" gradientUnits="userSpaceOnUse">
<stop stop-color="#0F946F"/>
<stop offset="1" stop-color="#D0DA87"/>
</linearGradient>
</defs>
</svg>
