<svg width="389" height="70" viewBox="0 0 389 70" fill="none" xmlns="http://www.w3.org/2000/svg">
<path d="M35.3977 70C54.9479 70 70.7955 54.3305 70.7955 35V10.5C70.7955 7.71523 69.6766 5.04451 67.6851 3.07538C65.6936 1.10625 62.9926 0 60.1761 0H37.1676V15.3545C37.1676 18.858 37.3835 22.4875 39.2419 25.4695C40.5723 27.6066 42.3521 29.4358 44.4604 30.8329C46.5687 32.23 48.9563 33.1624 51.4612 33.5667L52.1391 33.6753C52.4185 33.7697 52.6611 33.9482 52.8329 34.1857C53.0047 34.4233 53.097 34.708 53.097 35C53.097 35.292 53.0047 35.5767 52.8329 35.8143C52.6611 36.0518 52.4185 36.2303 52.1391 36.3247L51.4612 36.4333C47.8014 37.0244 44.4218 38.7372 41.7996 41.33C39.1774 43.9227 37.4451 47.2643 36.8473 50.883L36.7375 51.5532C36.642 51.8296 36.4615 52.0694 36.2212 52.2393C35.981 52.4091 35.6931 52.5004 35.3977 52.5004C35.1024 52.5004 34.8144 52.4091 34.5742 52.2393C34.334 52.0694 34.1534 51.8296 34.0579 51.5532L33.9482 50.883C33.5391 48.4063 32.5961 46.0456 31.1831 43.9609C29.7701 41.8763 27.9202 40.1165 25.7589 38.801C22.743 36.9635 19.0723 36.75 15.529 36.75H0.0424773C0.968128 55.2668 16.4422 70 35.3977 70Z" fill="#DF2E38"/>
<path d="M0 33.25H15.529C19.0723 33.25 22.743 33.0365 25.7589 31.199C28.1164 29.7628 30.101 27.8005 31.5535 25.4695C33.4119 22.4875 33.6278 18.858 33.6278 15.3545V0H10.6193C7.8029 0 5.10183 1.10625 3.11033 3.07538C1.11882 5.04451 0 7.71523 0 10.5V33.25ZM82.2201 3.5C82.2201 4.42826 81.8471 5.3185 81.1833 5.97487C80.5195 6.63125 79.6191 7 78.6803 7C77.7415 7 76.8411 6.63125 76.1773 5.97487C75.5135 5.3185 75.1405 4.42826 75.1405 3.5C75.1405 2.57174 75.5135 1.6815 76.1773 1.02513C76.8411 0.368749 77.7415 0 78.6803 0C79.6191 0 80.5195 0.368749 81.1833 1.02513C81.8471 1.6815 82.2201 2.57174 82.2201 3.5ZM374.704 21.182C384.6 21.182 389.375 28.0158 389.375 35.931V50.7973H379.019V37.695C379.019 34.1075 377.696 31.1465 373.899 31.1465C370.103 31.1465 368.837 34.1075 368.837 37.695V50.7955H358.482V37.695C358.482 34.1075 357.216 31.1465 353.418 31.1465C349.622 31.1465 348.298 34.1075 348.298 37.695V50.7955H337.944V35.9293C337.944 28.014 342.717 21.1803 352.613 21.1803C358.021 21.1803 361.933 23.2873 363.717 26.761C365.614 23.2873 369.758 21.1785 374.704 21.1785V21.182ZM319.335 41.685C322.672 41.685 324.11 38.6663 324.11 35.077V22.3195H334.464V36.33C334.464 44.702 329.517 51.6513 319.335 51.6513C309.151 51.6513 304.205 44.7038 304.205 36.33V22.3195H314.56V35.077C314.56 38.6645 315.997 41.685 319.335 41.685ZM288.978 51.7073C282.477 51.7073 278.277 49.4865 275.803 45.1588L283.283 41.0008C284.318 42.8225 285.87 43.7343 288.46 43.7343C290.589 43.7343 291.566 42.994 291.566 42.0823C291.566 38.6085 276.378 42.14 276.378 31.0923C276.378 25.7373 280.98 21.4095 288.805 21.4095C295.651 21.4095 299.39 24.7118 301.059 27.902L293.58 32.116C292.948 30.408 290.991 29.3825 289.035 29.3825C287.539 29.3825 286.734 30.009 286.734 30.863C286.734 34.3945 301.921 31.1483 301.921 41.8548C301.921 47.8345 295.996 51.7073 288.978 51.7073ZM252.798 63.896H242.443V36.5015C242.443 27.7865 249.058 21.4655 258.264 21.4655C267.239 21.4655 274.085 28.2433 274.085 36.5015C274.085 45.6138 267.986 51.6513 258.839 51.6513C256.71 51.6513 254.582 51.0248 252.798 50.0553V63.896ZM258.264 42.0263C261.543 42.0263 263.729 39.5203 263.729 36.5575C263.729 33.5405 261.543 31.0905 258.264 31.0905C254.984 31.0905 252.798 33.5405 252.798 36.5593C252.798 39.5203 254.984 42.0263 258.264 42.0263ZM232.069 19.3025C228.675 19.3025 225.857 16.5113 225.857 13.1513C225.857 9.79125 228.675 7 232.069 7C235.464 7 238.283 9.79125 238.283 13.1513C238.283 16.5113 235.464 19.3025 232.069 19.3025ZM226.892 22.3195H237.248V50.7973H226.892V22.3195ZM207.024 51.6513C198.049 51.6513 191.203 44.8175 191.203 36.5015C191.203 28.2433 198.049 21.4095 207.024 21.4095C215.999 21.4095 222.845 28.2433 222.845 36.5015C222.845 44.8175 215.999 51.6513 207.024 51.6513ZM207.024 42.0263C210.303 42.0263 212.489 39.5203 212.489 36.5575C212.489 33.5405 210.303 31.0345 207.024 31.0345C203.744 31.0345 201.558 33.5405 201.558 36.5575C201.558 39.5203 203.744 42.0263 207.024 42.0263ZM171.649 64.75C164.516 64.75 159.338 61.6175 156.692 56.035L165.263 51.4798C166.183 53.417 167.909 55.4103 171.475 55.4103C175.217 55.4103 177.69 53.074 177.978 48.9738C176.597 50.1708 174.41 51.0808 171.132 51.0808C163.134 51.0808 156.69 44.9873 156.69 36.4438C156.69 28.1873 163.538 21.4655 172.513 21.4655C181.718 21.4655 188.334 27.7883 188.334 36.5015V47.7785C188.334 58.03 181.141 64.75 171.649 64.75ZM172.339 41.4575C175.445 41.4575 177.805 39.3488 177.805 36.2163C177.805 33.1415 175.447 31.0905 172.339 31.0905C169.29 31.0905 166.874 33.1415 166.874 36.218C166.874 39.3505 169.29 41.4575 172.339 41.4575ZM139.125 51.6513C130.15 51.6513 123.303 44.8175 123.303 36.5015C123.303 28.2433 130.15 21.4095 139.125 21.4095C148.099 21.4095 154.946 28.2433 154.946 36.5015C154.946 44.8175 148.101 51.6513 139.125 51.6513ZM139.125 42.0263C142.405 42.0263 144.591 39.5203 144.591 36.5575C144.591 33.5405 142.405 31.0345 139.125 31.0345C135.846 31.0345 133.66 33.5405 133.66 36.5575C133.66 39.5203 135.846 42.0263 139.125 42.0263ZM104.446 12.355V41.1145H121.591V50.7973H103.007C96.45 50.7973 93.804 47.3795 93.804 41.9685V12.355H104.446Z" fill="#DF2E38"/>
</svg>
